<?xml version="1.0" encoding="utf-8"?>
<!-- Generator: Adobe Illustrator 24.1.2, SVG Export Plug-In . SVG Version: 6.00 Build 0)  -->
<svg version="1.1" id="Layer_1" xmlns="http://www.w3.org/2000/svg" xmlns:xlink="http://www.w3.org/1999/xlink" x="0px" y="0px"
	 viewBox="0 0 512 512" style="enable-background:new 0 0 512 512;" xml:space="preserve">
<style type="text/css">
	.st0{opacity:0.5;fill-rule:evenodd;clip-rule:evenodd;fill:#FED876;enable-background:new    ;}
	.st1{fill-rule:evenodd;clip-rule:evenodd;fill:#FED876;}
</style>
<g>
	<g>
		<path class="st0" d="M501.1,136.7c8.4-45.6-45.7-78.6-77.1-83.9c11.2,10.9,18.9,25.3,20.4,44c2.7,34-3.9,55.8-24.4,67
			C445.9,166.9,495.7,166.3,501.1,136.7z"/>
		<path class="st1" d="M420,163.8c20.4-11.2,27.1-33.1,24.4-67c-1.5-18.7-9.2-33.1-20.4-44c-25-24.4-67.2-31.1-96-28.4
			c6,5.3,11.4,12.3,15.8,21.1c11,21.9,30.9,107.5,23.5,125.1c-1.4,3.3-3,6.6-5,9.9C365.7,180.1,404.2,172.5,420,163.8L420,163.8z"/>
		<path class="st0" d="M367.3,170.6c7.4-17.6-12.5-103.2-23.5-125.1c-4.4-8.9-9.8-15.8-15.8-21.1C291.6-7.7,230,20,195.2,48.9
			c5,3.2,9.3,8.2,13.3,14.6c32.5,52.4,83.9,103.1,81.1,152.1c32.4-2.2,57-15.9,67.1-27.4c2.2-2.5,4-5.1,5.6-7.7
			C364.3,177.2,366,173.9,367.3,170.6z"/>
		<path class="st0" d="M215.6,289.6c-49,2.8-99.8-48.6-152.1-81.1c-6.3-3.9-11.3-8.2-14.6-13.3C20,230-7.7,291.6,24.4,328
			c5.3,6,12.3,11.4,21.1,15.8c21.9,11,107.5,30.9,125.1,23.5c3.3-1.4,6.6-3,9.9-5c2.6-1.6,5.2-3.5,7.7-5.6
			C199.7,346.6,213.4,321.9,215.6,289.6L215.6,289.6z"/>
		<path class="st1" d="M170.6,367.3c-17.6,7.4-103.2-12.5-125.1-23.5c-8.9-4.4-15.8-9.8-21.1-15.8c-2.7,28.7,4,71,28.4,96
			c10.9,11.2,25.3,18.9,44,20.4c34,2.7,55.8-3.9,67-24.4c8.7-15.8,16.3-54.3,16.7-57.7C177.2,364.3,173.9,366,170.6,367.3z"/>
		<path class="st0" d="M163.8,420c-11.2,20.4-33.1,27.1-67,24.4c-18.7-1.5-33.1-9.2-44-20.4c5.3,31.4,38.4,85.5,83.9,77.1
			C166.3,495.7,166.9,445.9,163.8,420z"/>
		<path class="st1" d="M265,265c-64.3,64.3-131.4-13-201.5-56.5c-13-8.1-20.2-17.6-18.7-32.3c3.3-32,15.2-63.5,41.6-89.8
			s57.9-38.3,89.8-41.6c14.7-1.5,24.2,5.7,32.3,18.7C252,133.5,329.3,200.7,265,265z"/>
	</g>
	<g>
		<path d="M499.2,88.9c-16.7-23.9-47.5-40.6-70.5-45.4c-0.8-0.7-1.7-1.5-2.5-2.2c-27.2-22.8-67.1-28.9-94.9-27.2
			C323.5,8,314.4,3.9,304.1,1.7C266.6-6.2,222.5,15,193.9,37.1c-5.7-2.3-12-3-18.8-2.3c-38.1,4-70.3,18.9-95.9,44.5
			c-25.5,25.5-40.5,57.8-44.5,95.9c-0.7,6.8,0.1,13,2.3,18.8C15,222.5-6.2,266.6,1.7,304.1c2.2,10.3,6.3,19.3,12.4,27.2
			c-1.7,27.8,4.4,67.8,27.3,95c0.7,0.8,1.4,1.6,2.1,2.4c4.9,23,21.6,53.8,45.5,70.5c12.1,8.4,25.2,12.7,38.4,12.7
			c3.7,0,7.4-0.3,11.1-1c11.9-2.2,27.5-11,33.8-40.6c4-18.7,2.8-38.5,1.8-48.5c7.5-15.8,13.5-43.5,15.5-53.6
			c1.8-1.3,3.6-2.7,5.2-4.1c11.6-10.2,25.9-33.2,29.9-65.7c16.9-2.9,32.6-11.7,47.3-26.4c14.7-14.7,23.5-30.4,26.4-47.3
			c30.6-3.9,54.8-17.4,65.7-29.9c1.5-1.7,2.8-3.4,4.1-5.2c9.2-1.8,37.6-7.9,53.6-15.5c4.7,0.5,11.5,1,19.3,1c9,0,19.3-0.7,29.2-2.8
			c29.6-6.3,38.4-21.9,40.6-33.8C514.1,121.5,510,104.4,499.2,88.9L499.2,88.9z M434.4,97.6c3.2,39.8-8.6,51.6-19.2,57.5
			c-7.9,4.3-23.6,8.8-36.8,11.9c1.6-12-0.5-31.9-6.1-59.3c-5.7-27.7-13.7-55.1-19.5-66.6c-1.2-2.4-2.5-4.7-3.9-6.9
			c22.4,1.4,47.4,8.2,64.4,22.5C426,67.2,433.1,81,434.4,97.6z M34.1,349c2.2,1.4,4.5,2.6,6.9,3.9c11.5,5.8,38.9,13.8,66.6,19.5
			c21.5,4.4,38.3,6.6,50.4,6.6c3.3,0,6.3-0.2,8.9-0.5c-3.1,12.8-7.5,28.8-11.9,36.8c-5.9,10.6-17.7,22.4-57.5,19.2
			c-16.6-1.3-30.3-8.4-40.9-21C42.3,396.4,35.5,371.4,34.1,349L34.1,349z M134.9,491.3c-11.7,2.1-23.3-0.7-34.4-8.5
			c-11.8-8.2-21.6-21-28.3-34c7.4,3,15.4,4.8,23.9,5.5c4.6,0.4,9.6,0.6,14.7,0.6c14.8,0,31-2.3,44.3-11
			C154.5,466.1,149.3,488.7,134.9,491.3z M257.9,257.9c-20.3,20.3-41.8,26.1-67.7,18.2c-5.3-1.6-10.9,1.4-12.5,6.7
			c-1.6,5.3,1.4,10.9,6.7,12.5c6.9,2.1,13.5,3.4,20,4c-3.7,23.7-14,42.2-22.8,49.9c-4,3.5-8.8,6.4-14.9,9
			c-3.8,1.6-21.6,1.5-55.1-5.4C85.8,347.5,59.8,340,49.9,335c-16-8-25.4-19.4-28.7-34.9c-5.8-27.5,9.2-63,28.3-89.3
			c2.6,2.2,5.4,4.3,8.6,6.3c14,8.7,28.2,19,42,29l3.7,2.7c4.5,3.2,10.7,2.2,14-2.2c3.2-4.5,2.2-10.7-2.2-14l-3.7-2.7
			c-14-10.2-28.6-20.7-43.2-29.8c-12.8-7.9-14.9-14.8-14-22.8c3.5-33.4,16.5-61.6,38.7-83.8s50.4-35.3,83.8-38.7
			c7.9-0.8,14.8,1.2,22.8,14c9.1,14.6,19.6,29.2,29.8,43.2C269.1,166.1,303,212.8,257.9,257.9L257.9,257.9z M299.2,204.4
			c-0.6-6.6-2-13.5-4.1-20.5c-8.7-28.1-29.2-56.4-49.1-83.7c-10-13.8-20.3-28-29-42c-2-3.2-4.1-6.1-6.3-8.6
			C237,30.4,272.6,15.5,300,21.3c15.5,3.3,26.9,12.7,34.9,28.7c5,10,12.5,35.9,17.8,61.7c6.9,33.5,7,51.3,5.4,55.1
			c-2.6,6.1-5.4,10.9-9,14.9C341.3,190.5,322.9,200.8,299.2,204.4L299.2,204.4z M491.3,134.9c-2.7,14.5-25.2,19.6-47.3,20.1
			c11.7-17.9,11.8-41.1,10.3-59c-0.7-8.5-2.5-16.5-5.5-23.9c12.9,6.7,25.7,16.5,34,28.3C490.6,111.5,493.5,123.1,491.3,134.9
			L491.3,134.9z"/>
		<path d="M290.9,51.4L290.9,51.4c-5.5,0-10,4.5-10,10s4.5,10,10,10s10-4.5,10-10S296.4,51.4,290.9,51.4z"/>
		<path d="M194.9,134.4L194.9,134.4c-5.5,0-10,4.5-10,10s4.5,10,10,10s10-4.5,10-10S200.4,134.4,194.9,134.4z"/>
		<path d="M120.9,122.4L120.9,122.4c-5.5,0-10,4.5-10,10c0,5.5,4.5,10,10,10s10-4.5,10-10C130.9,126.9,126.4,122.4,120.9,122.4
			L120.9,122.4z"/>
		<path d="M75.3,295.4L75.3,295.4c-5.5,0-10,4.5-10,10s4.5,10,10,10s10-4.5,10-10S80.9,295.4,75.3,295.4z"/>
		<path d="M102.9,412.4c5.5,0,10-4.5,10-10s-4.5-10-10-10l0,0c-5.5,0-10,4.5-10,10C92.8,407.9,97.3,412.4,102.9,412.4z"/>
		<path d="M146.8,256.1L146.8,256.1c-5.5,0-10,4.5-10,10s4.5,10,10,10s10-4.5,10-10S152.3,256.1,146.8,256.1z"/>
	</g>
</g>
</svg>
